# Goxel 0.15.1
v 0 0 0 1.000000 1.000000 1.000000
v 0 0 -1 1.000000 1.000000 1.000000
v 1 0 -1 1.000000 1.000000 1.000000
v 1 0 0 1.000000 1.000000 1.000000
v 2 0 -1 1.000000 1.000000 1.000000
v 2 0 0 1.000000 1.000000 1.000000
v 2 1 0 1.000000 1.000000 1.000000
v 2 1 -1 1.000000 1.000000 1.000000
v 1 1 -1 1.000000 1.000000 1.000000
v 1 1 0 1.000000 1.000000 1.000000
v 3 0 -1 1.000000 1.000000 1.000000
v 3 0 0 1.000000 1.000000 1.000000
v 3 1 0 1.000000 1.000000 1.000000
v 3 1 -1 1.000000 1.000000 1.000000
v 0 0 -2 1.000000 1.000000 1.000000
v 1 0 -2 1.000000 1.000000 1.000000
v 1 1 -2 1.000000 1.000000 1.000000
v 0 1 -2 1.000000 1.000000 1.000000
v 0 1 -1 1.000000 1.000000 1.000000
v 2 0 -2 1.000000 1.000000 1.000000
v 2 1 -2 1.000000 1.000000 1.000000
v 3 0 -2 1.000000 1.000000 1.000000
v 3 1 -2 1.000000 1.000000 1.000000
v 1 0 -3 1.000000 1.000000 1.000000
v 0 0 -3 1.000000 1.000000 1.000000
v 0 1 -3 1.000000 1.000000 1.000000
v 1 1 -3 1.000000 1.000000 1.000000
v 2 0 -3 1.000000 1.000000 1.000000
v 2 1 -3 1.000000 1.000000 1.000000
v 3 0 -3 1.000000 1.000000 1.000000
v 3 1 -3 1.000000 1.000000 1.000000
v 0 1 0 1.000000 1.000000 1.000000
v 1 2 0 1.000000 1.000000 1.000000
v 0 2 0 1.000000 1.000000 1.000000
v 0 2 -1 1.000000 1.000000 1.000000
v 1 2 -1 1.000000 1.000000 1.000000
v 1 3 0 1.000000 1.000000 1.000000
v 0 3 0 1.000000 1.000000 1.000000
v 0 3 -1 1.000000 1.000000 1.000000
v 1 3 -1 1.000000 1.000000 1.000000
v 1 4 0 1.000000 1.000000 1.000000
v 0 4 0 1.000000 1.000000 1.000000
v 0 4 -1 1.000000 1.000000 1.000000
v 1 4 -1 1.000000 1.000000 1.000000
v 1 5 0 1.000000 1.000000 1.000000
v 0 5 0 1.000000 1.000000 1.000000
v 0 5 -1 1.000000 1.000000 1.000000
v 1 5 -1 1.000000 1.000000 1.000000
v 1 6 0 1.000000 1.000000 1.000000
v 0 6 0 1.000000 1.000000 1.000000
v 0 6 -1 1.000000 1.000000 1.000000
v 1 6 -1 1.000000 1.000000 1.000000
v 1 7 0 1.000000 1.000000 1.000000
v 0 7 0 1.000000 1.000000 1.000000
v 0 7 -1 1.000000 1.000000 1.000000
v 1 7 -1 1.000000 1.000000 1.000000
v 1 8 0 1.000000 1.000000 1.000000
v 0 8 0 1.000000 1.000000 1.000000
v 0 8 -1 1.000000 1.000000 1.000000
v 1 8 -1 1.000000 1.000000 1.000000
v 1 9 0 1.000000 1.000000 1.000000
v 0 9 0 1.000000 1.000000 1.000000
v 0 9 -1 1.000000 1.000000 1.000000
v 1 9 -1 1.000000 1.000000 1.000000
v 1 10 0 1.000000 1.000000 1.000000
v 0 10 0 1.000000 1.000000 1.000000
v 0 10 -1 1.000000 1.000000 1.000000
v 1 10 -1 1.000000 1.000000 1.000000
v 1 11 0 1.000000 1.000000 1.000000
v 0 11 0 1.000000 1.000000 1.000000
v 0 11 -1 1.000000 1.000000 1.000000
v 1 11 -1 1.000000 1.000000 1.000000
v 1 12 0 1.000000 1.000000 1.000000
v 0 12 0 1.000000 1.000000 1.000000
v 0 12 -1 1.000000 1.000000 1.000000
v 1 12 -1 1.000000 1.000000 1.000000
v 1 11 0 0.992157 0.000000 0.000000
v 2 11 0 0.992157 0.000000 0.000000
v 2 12 0 0.992157 0.000000 0.000000
v 1 12 0 0.992157 0.000000 0.000000
v 2 11 -1 0.992157 0.000000 0.000000
v 1 11 -1 0.992157 0.000000 0.000000
v 1 12 -1 0.992157 0.000000 0.000000
v 2 12 -1 0.992157 0.000000 0.000000
v 3 11 0 0.992157 0.000000 0.000000
v 3 12 0 0.992157 0.000000 0.000000
v 3 11 -1 0.992157 0.000000 0.000000
v 3 12 -1 0.992157 0.000000 0.000000
v 4 11 0 0.992157 0.000000 0.000000
v 4 12 0 0.992157 0.000000 0.000000
v 4 11 -1 0.992157 0.000000 0.000000
v 4 12 -1 0.992157 0.000000 0.000000
v 1 13 0 1.000000 1.000000 1.000000
v 0 13 0 1.000000 1.000000 1.000000
v 0 13 -1 1.000000 1.000000 1.000000
v 1 13 -1 1.000000 1.000000 1.000000
v 2 13 0 0.992157 0.000000 0.000000
v 1 13 0 0.992157 0.000000 0.000000
v 1 13 -1 0.992157 0.000000 0.000000
v 2 13 -1 0.992157 0.000000 0.000000
v 3 13 0 0.992157 0.000000 0.000000
v 3 13 -1 0.992157 0.000000 0.000000
v 4 13 0 0.992157 0.000000 0.000000
v 4 13 -1 0.992157 0.000000 0.000000
v 5 12 0 0.992157 0.000000 0.000000
v 5 13 0 0.992157 0.000000 0.000000
v 5 12 -1 0.992157 0.000000 0.000000
v 5 13 -1 0.992157 0.000000 0.000000
v 6 12 0 0.992157 0.000000 0.000000
v 6 13 0 0.992157 0.000000 0.000000
v 6 12 -1 0.992157 0.000000 0.000000
v 6 13 -1 0.992157 0.000000 0.000000
v 7 12 0 0.992157 0.000000 0.000000
v 7 13 0 0.992157 0.000000 0.000000
v 7 12 -1 0.992157 0.000000 0.000000
v 7 13 -1 0.992157 0.000000 0.000000
v 1 14 0 1.000000 1.000000 1.000000
v 0 14 0 1.000000 1.000000 1.000000
v 0 14 -1 1.000000 1.000000 1.000000
v 1 14 -1 1.000000 1.000000 1.000000
v 2 14 0 0.992157 0.000000 0.000000
v 1 14 0 0.992157 0.000000 0.000000
v 1 14 -1 0.992157 0.000000 0.000000
v 2 14 -1 0.992157 0.000000 0.000000
v 3 14 0 0.992157 0.000000 0.000000
v 3 14 -1 0.992157 0.000000 0.000000
v 4 14 0 0.992157 0.000000 0.000000
v 4 14 -1 0.992157 0.000000 0.000000
v 5 14 0 0.992157 0.000000 0.000000
v 5 14 -1 0.992157 0.000000 0.000000
v 6 14 0 0.992157 0.000000 0.000000
v 6 14 -1 0.992157 0.000000 0.000000
v 7 14 0 0.992157 0.000000 0.000000
v 7 14 -1 0.992157 0.000000 0.000000
v 8 13 0 0.992157 0.000000 0.000000
v 8 14 0 0.992157 0.000000 0.000000
v 8 13 -1 0.992157 0.000000 0.000000
v 8 14 -1 0.992157 0.000000 0.000000
v 9 13 0 0.992157 0.000000 0.000000
v 9 14 0 0.992157 0.000000 0.000000
v 9 13 -1 0.992157 0.000000 0.000000
v 9 14 -1 0.992157 0.000000 0.000000
v 1 15 0 1.000000 1.000000 1.000000
v 0 15 0 1.000000 1.000000 1.000000
v 0 15 -1 1.000000 1.000000 1.000000
v 1 15 -1 1.000000 1.000000 1.000000
v 2 15 0 0.992157 0.000000 0.000000
v 1 15 0 0.992157 0.000000 0.000000
v 1 15 -1 0.992157 0.000000 0.000000
v 2 15 -1 0.992157 0.000000 0.000000
v 3 15 0 0.992157 0.000000 0.000000
v 3 15 -1 0.992157 0.000000 0.000000
v 4 15 0 0.992157 0.000000 0.000000
v 4 15 -1 0.992157 0.000000 0.000000
v 5 15 0 0.992157 0.000000 0.000000
v 5 15 -1 0.992157 0.000000 0.000000
v 6 15 0 0.992157 0.000000 0.000000
v 6 15 -1 0.992157 0.000000 0.000000
v 7 15 0 0.992157 0.000000 0.000000
v 7 15 -1 0.992157 0.000000 0.000000
v 1 16 0 1.000000 1.000000 1.000000
v 0 16 0 1.000000 1.000000 1.000000
v 0 16 -1 1.000000 1.000000 1.000000
v 1 16 -1 1.000000 1.000000 1.000000
v 2 16 0 0.992157 0.000000 0.000000
v 1 16 0 0.992157 0.000000 0.000000
v 1 16 -1 0.992157 0.000000 0.000000
v 2 16 -1 0.992157 0.000000 0.000000
v 3 16 0 0.992157 0.000000 0.000000
v 3 16 -1 0.992157 0.000000 0.000000
v 4 16 0 0.992157 0.000000 0.000000
v 4 16 -1 0.992157 0.000000 0.000000
v 5 16 0 0.992157 0.000000 0.000000
v 5 16 -1 0.992157 0.000000 0.000000
v -2 0 0 1.000000 1.000000 1.000000
v -2 0 -1 1.000000 1.000000 1.000000
v -1 0 -1 1.000000 1.000000 1.000000
v -1 0 0 1.000000 1.000000 1.000000
v -1 1 0 1.000000 1.000000 1.000000
v -1 1 -1 1.000000 1.000000 1.000000
v -2 1 -1 1.000000 1.000000 1.000000
v -2 1 0 1.000000 1.000000 1.000000
v -2 0 -2 1.000000 1.000000 1.000000
v -1 0 -2 1.000000 1.000000 1.000000
v -1 1 -2 1.000000 1.000000 1.000000
v -2 1 -2 1.000000 1.000000 1.000000
v -1 0 -3 1.000000 1.000000 1.000000
v -2 0 -3 1.000000 1.000000 1.000000
v -2 1 -3 1.000000 1.000000 1.000000
v -1 1 -3 1.000000 1.000000 1.000000
v -2 0 2 1.000000 1.000000 1.000000
v -1 0 2 1.000000 1.000000 1.000000
v -1 1 2 1.000000 1.000000 1.000000
v -2 1 2 1.000000 1.000000 1.000000
v -2 0 1 1.000000 1.000000 1.000000
v -1 0 1 1.000000 1.000000 1.000000
v -1 1 1 1.000000 1.000000 1.000000
v -2 1 1 1.000000 1.000000 1.000000
v 0 0 2 1.000000 1.000000 1.000000
v 0 1 2 1.000000 1.000000 1.000000
v 0 0 1 1.000000 1.000000 1.000000
v 0 1 1 1.000000 1.000000 1.000000
v 1 0 2 1.000000 1.000000 1.000000
v 1 1 2 1.000000 1.000000 1.000000
v 1 0 1 1.000000 1.000000 1.000000
v 1 1 1 1.000000 1.000000 1.000000
v 2 0 2 1.000000 1.000000 1.000000
v 2 1 2 1.000000 1.000000 1.000000
v 2 0 1 1.000000 1.000000 1.000000
v 2 1 1 1.000000 1.000000 1.000000
v 3 0 2 1.000000 1.000000 1.000000
v 3 1 2 1.000000 1.000000 1.000000
v 3 0 1 1.000000 1.000000 1.000000
v 3 1 1 1.000000 1.000000 1.000000
v 1 17 0 1.000000 1.000000 1.000000
v 0 17 0 1.000000 1.000000 1.000000
v 0 17 -1 1.000000 1.000000 1.000000
v 1 17 -1 1.000000 1.000000 1.000000
v 2 17 0 0.992157 0.000000 0.000000
v 1 17 0 0.992157 0.000000 0.000000
v 1 17 -1 0.992157 0.000000 0.000000
v 2 17 -1 0.992157 0.000000 0.000000
v 3 17 0 0.992157 0.000000 0.000000
v 3 17 -1 0.992157 0.000000 0.000000
v 1 18 0 1.000000 1.000000 1.000000
v 0 18 0 1.000000 1.000000 1.000000
v 0 18 -1 1.000000 1.000000 1.000000
v 1 18 -1 1.000000 1.000000 1.000000
vn 0 -1 0
vn 0 1 0
vn 1 0 0
vn 0 0 -1
vn 0 0 1
vn -1 0 0
vn 0 0 1
vn 0 0 -1
vn 0 -1 0
vn 1 0 0
vn 0 1 0
f 1//1 2//1 3//1 4//1
f 4//1 3//1 5//1 6//1
f 7//2 8//2 9//2 10//2
f 6//1 5//1 11//1 12//1
f 13//2 14//2 8//2 7//2
f 12//3 11//3 14//3 13//3
f 2//1 15//1 16//1 3//1
f 9//2 17//2 18//2 19//2
f 3//1 16//1 20//1 5//1
f 8//2 21//2 17//2 9//2
f 5//1 20//1 22//1 11//1
f 14//2 23//2 21//2 8//2
f 11//3 22//3 23//3 14//3
f 24//4 25//4 26//4 27//4
f 15//1 25//1 24//1 16//1
f 17//2 27//2 26//2 18//2
f 28//4 24//4 27//4 29//4
f 16//1 24//1 28//1 20//1
f 21//2 29//2 27//2 17//2
f 30//4 28//4 29//4 31//4
f 20//1 28//1 30//1 22//1
f 23//2 31//2 29//2 21//2
f 22//3 30//3 31//3 23//3
f 32//5 10//5 33//5 34//5
f 9//4 19//4 35//4 36//4
f 10//3 9//3 36//3 33//3
f 32//6 34//6 35//6 19//6
f 34//5 33//5 37//5 38//5
f 36//4 35//4 39//4 40//4
f 33//3 36//3 40//3 37//3
f 34//6 38//6 39//6 35//6
f 38//5 37//5 41//5 42//5
f 40//4 39//4 43//4 44//4
f 37//3 40//3 44//3 41//3
f 38//6 42//6 43//6 39//6
f 42//5 41//5 45//5 46//5
f 44//4 43//4 47//4 48//4
f 41//3 44//3 48//3 45//3
f 42//6 46//6 47//6 43//6
f 46//5 45//5 49//5 50//5
f 48//4 47//4 51//4 52//4
f 45//3 48//3 52//3 49//3
f 46//6 50//6 51//6 47//6
f 50//5 49//5 53//5 54//5
f 52//4 51//4 55//4 56//4
f 49//3 52//3 56//3 53//3
f 50//6 54//6 55//6 51//6
f 54//5 53//5 57//5 58//5
f 56//4 55//4 59//4 60//4
f 53//3 56//3 60//3 57//3
f 54//6 58//6 59//6 55//6
f 58//5 57//5 61//5 62//5
f 60//4 59//4 63//4 64//4
f 57//3 60//3 64//3 61//3
f 58//6 62//6 63//6 59//6
f 62//5 61//5 65//5 66//5
f 64//4 63//4 67//4 68//4
f 61//3 64//3 68//3 65//3
f 62//6 66//6 67//6 63//6
f 66//5 65//5 69//5 70//5
f 68//4 67//4 71//4 72//4
f 65//3 68//3 72//3 69//3
f 66//6 70//6 71//6 67//6
f 70//5 69//5 73//5 74//5
f 72//4 71//4 75//4 76//4
f 70//6 74//6 75//6 71//6
f 77//7 78//7 79//7 80//7
f 81//8 82//8 83//8 84//8
f 77//9 82//9 81//9 78//9
f 78//7 85//7 86//7 79//7
f 87//8 81//8 84//8 88//8
f 78//9 81//9 87//9 85//9
f 85//7 89//7 90//7 86//7
f 91//8 87//8 88//8 92//8
f 85//9 87//9 91//9 89//9
f 89//10 91//10 92//10 90//10
f 74//5 73//5 93//5 94//5
f 76//4 75//4 95//4 96//4
f 74//6 94//6 95//6 75//6
f 80//7 79//7 97//7 98//7
f 84//8 83//8 99//8 100//8
f 79//7 86//7 101//7 97//7
f 88//8 84//8 100//8 102//8
f 86//7 90//7 103//7 101//7
f 92//8 88//8 102//8 104//8
f 90//7 105//7 106//7 103//7
f 107//8 92//8 104//8 108//8
f 90//9 92//9 107//9 105//9
f 105//7 109//7 110//7 106//7
f 111//8 107//8 108//8 112//8
f 105//9 107//9 111//9 109//9
f 109//7 113//7 114//7 110//7
f 115//8 111//8 112//8 116//8
f 109//9 111//9 115//9 113//9
f 113//10 115//10 116//10 114//10
f 94//5 93//5 117//5 118//5
f 96//4 95//4 119//4 120//4
f 94//6 118//6 119//6 95//6
f 98//7 97//7 121//7 122//7
f 100//8 99//8 123//8 124//8
f 97//7 101//7 125//7 121//7
f 102//8 100//8 124//8 126//8
f 101//7 103//7 127//7 125//7
f 104//8 102//8 126//8 128//8
f 103//7 106//7 129//7 127//7
f 108//8 104//8 128//8 130//8
f 106//7 110//7 131//7 129//7
f 112//8 108//8 130//8 132//8
f 110//7 114//7 133//7 131//7
f 116//8 112//8 132//8 134//8
f 114//7 135//7 136//7 133//7
f 137//8 116//8 134//8 138//8
f 114//9 116//9 137//9 135//9
f 136//11 138//11 134//11 133//11
f 135//7 139//7 140//7 136//7
f 141//8 137//8 138//8 142//8
f 135//9 137//9 141//9 139//9
f 140//11 142//11 138//11 136//11
f 139//10 141//10 142//10 140//10
f 118//5 117//5 143//5 144//5
f 120//4 119//4 145//4 146//4
f 118//6 144//6 145//6 119//6
f 122//7 121//7 147//7 148//7
f 124//8 123//8 149//8 150//8
f 121//7 125//7 151//7 147//7
f 126//8 124//8 150//8 152//8
f 125//7 127//7 153//7 151//7
f 128//8 126//8 152//8 154//8
f 127//7 129//7 155//7 153//7
f 130//8 128//8 154//8 156//8
f 129//7 131//7 157//7 155//7
f 132//8 130//8 156//8 158//8
f 157//11 158//11 156//11 155//11
f 131//7 133//7 159//7 157//7
f 134//8 132//8 158//8 160//8
f 159//11 160//11 158//11 157//11
f 133//10 134//10 160//10 159//10
f 144//5 143//5 161//5 162//5
f 146//4 145//4 163//4 164//4
f 144//6 162//6 163//6 145//6
f 148//7 147//7 165//7 166//7
f 150//8 149//8 167//8 168//8
f 147//7 151//7 169//7 165//7
f 152//8 150//8 168//8 170//8
f 151//7 153//7 171//7 169//7
f 154//8 152//8 170//8 172//8
f 171//11 172//11 170//11 169//11
f 153//7 155//7 173//7 171//7
f 156//8 154//8 172//8 174//8
f 173//11 174//11 172//11 171//11
f 155//10 156//10 174//10 173//10
f 175//1 176//1 177//1 178//1
f 179//2 180//2 181//2 182//2
f 175//6 182//6 181//6 176//6
f 178//1 177//1 2//1 1//1
f 32//2 19//2 180//2 179//2
f 176//1 183//1 184//1 177//1
f 180//2 185//2 186//2 181//2
f 176//6 181//6 186//6 183//6
f 177//1 184//1 15//1 2//1
f 19//2 18//2 185//2 180//2
f 187//4 188//4 189//4 190//4
f 183//1 188//1 187//1 184//1
f 185//2 190//2 189//2 186//2
f 183//6 186//6 189//6 188//6
f 25//4 187//4 190//4 26//4
f 184//1 187//1 25//1 15//1
f 18//2 26//2 190//2 185//2
f 191//5 192//5 193//5 194//5
f 191//1 195//1 196//1 192//1
f 193//2 197//2 198//2 194//2
f 191//6 194//6 198//6 195//6
f 192//5 199//5 200//5 193//5
f 192//1 196//1 201//1 199//1
f 200//2 202//2 197//2 193//2
f 195//1 175//1 178//1 196//1
f 197//2 179//2 182//2 198//2
f 195//6 198//6 182//6 175//6
f 196//1 178//1 1//1 201//1
f 202//2 32//2 179//2 197//2
f 199//5 203//5 204//5 200//5
f 199//1 201//1 205//1 203//1
f 204//2 206//2 202//2 200//2
f 203//5 207//5 208//5 204//5
f 203//1 205//1 209//1 207//1
f 208//2 210//2 206//2 204//2
f 207//5 211//5 212//5 208//5
f 207//1 209//1 213//1 211//1
f 212//2 214//2 210//2 208//2
f 211//3 213//3 214//3 212//3
f 201//1 1//1 4//1 205//1
f 206//2 10//2 32//2 202//2
f 205//1 4//1 6//1 209//1
f 210//2 7//2 10//2 206//2
f 209//1 6//1 12//1 213//1
f 214//2 13//2 7//2 210//2
f 213//3 12//3 13//3 214//3
f 162//5 161//5 215//5 216//5
f 164//4 163//4 217//4 218//4
f 162//6 216//6 217//6 163//6
f 166//7 165//7 219//7 220//7
f 168//8 167//8 221//8 222//8
f 219//11 222//11 221//11 220//11
f 165//7 169//7 223//7 219//7
f 170//8 168//8 222//8 224//8
f 223//11 224//11 222//11 219//11
f 169//10 170//10 224//10 223//10
f 216//5 215//5 225//5 226//5
f 218//4 217//4 227//4 228//4
f 225//2 228//2 227//2 226//2
f 215//3 218//3 228//3 225//3
f 216//6 226//6 227//6 217//6
